<?xml version="1.0" encoding="utf-8"?>
<!-- Generator: Adobe Illustrator 16.0.0, SVG Export Plug-In . SVG Version: 6.00 Build 0)  -->
<!DOCTYPE svg PUBLIC "-//W3C//DTD SVG 1.1//EN" "http://www.w3.org/Graphics/SVG/1.1/DTD/svg11.dtd">
<svg version="1.1" id="Layer_1" xmlns="http://www.w3.org/2000/svg" xmlns:xlink="http://www.w3.org/1999/xlink" x="0px" y="0px"
	 width="87.598px" height="77.847px" viewBox="24.208 22.794 87.598 77.847" enable-background="new 24.208 22.794 87.598 77.847"
	 xml:space="preserve">
<path d="M104.448,30.138c-9.792-9.792-25.677-9.792-35.36,0L68,31.226l-1.088-1.088c-9.792-9.792-25.677-9.792-35.36,0
	c-9.792,9.792-9.792,25.677,0,35.36l3.373,3.374L65.715,99.66c0.109,0.109,0.326,0.327,0.544,0.436
	c0.109,0.109,0.217,0.109,0.326,0.218c0.109,0,0.109,0.108,0.218,0.108c0.109,0.109,0.326,0.109,0.435,0.109s0.109,0,0.218,0
	c0.218,0,0.435,0.109,0.653,0.109c0.217,0,0.435,0,0.653-0.109c0.109,0,0.109,0,0.217,0c0.109,0,0.327-0.109,0.436-0.109
	c0.109,0,0.109-0.108,0.218-0.108c0.108-0.108,0.218-0.108,0.327-0.218c0.217-0.108,0.326-0.217,0.543-0.436L81.273,88.89
	l19.91-19.911l3.373-3.372C114.24,55.814,114.24,39.93,104.448,30.138z M36.122,34.707c7.181-7.181,18.931-7.181,26.112,0
	l1.088,1.088l-3.155,3.155c-3.482,3.482-3.482,9.248,0,12.839c1.741,1.741,4.134,2.611,6.419,2.611c2.286,0,4.678-0.87,6.419-2.611
	l3.155-3.155l17.951,17.952l-15.34,15.34L50.375,53.53c-1.306-1.306-3.373-1.306-4.57,0l-8.595,8.486l-1.088-1.088
	C28.941,53.747,28.941,41.997,36.122,34.707z M41.888,66.585l6.202-6.202l26.111,26.112L68,92.807L41.888,66.585z M99.879,60.928
	l-1.088,1.088L78.662,41.888c-0.544-0.544-1.088-0.762-1.74-0.871c-1.088-0.326-2.285,0-3.155,0.871l-5.44,5.44
	c-0.979,0.979-2.611,0.979-3.59,0c-0.979-0.979-0.979-2.611,0-3.59l5.44-5.44l0,0c0,0,0,0,0.109-0.109l3.373-3.373
	c7.18-7.181,18.931-7.181,26.111,0C107.059,41.997,107.059,53.747,99.879,60.928z"/>
</svg>
